#!OML:ASF H:\Dans Jumps\Project 1\Capture day 1\Session 1\subject.ASF
:FULLY-SPECIFIED
:DEGREES
278
root 0.484991 17.3376 -3.06165 3.72784 0.551881 -0.621812
lowerback 3.33729 -0.430518 -1.05045
upperback 4.19807 -0.615218 1.5101
thorax 2.47119 -0.36109 2.14797
lowerneck -12.4566 0.0664229 -1.92109
upperneck 32.0641 0.337806 0.798875
head 12.7134 0.0202487 0.691744
rclavicle 3.37934e-015 1.78906e-015
rhumerus -12.6469 -16.1234 -84.2536
rradius 24.9877
rwrist 31.6917
rhand -24.3785 -26.6519
rfingers 7.12502
rthumb 2.1118 -56.6212
lclavicle 3.37934e-015 1.78906e-015
lhumerus -13.1626 16.2893 83.505
lradius 12.3886
lwrist -6.32327
lhand -25.2964 -4.96957
lfingers 7.12502
lthumb 1.22527 25.0067
rfemur -22.2803 -3.64447 18.6795
rtibia 35.0558
rfoot -14.9354 -0.891744
rtoes 11.0061
lfemur -21.9208 8.68545 -18.8198
ltibia 31.8839
lfoot -11.9562 3.53541
ltoes 1.38241
279
root 0.491431 17.3408 -3.05245 3.82218 0.523591 -0.640608
lowerback 3.4054 -0.43222 -1.01987
upperback 4.25625 -0.618481 1.55597
thorax 2.49366 -0.363283 2.17854
lowerneck -12.5582 0.0702576 -1.88374
upperneck 32.0532 0.365171 0.707658
head 12.7306 0.0251016 0.654287
rclavicle 3.8763e-015 -4.37326e-015
rhumerus -12.4701 -16.7759 -84.0241
rradius 24.5448
rwrist 32.3883
rhand -24.2674 -26.6297
rfingers 7.12502
rthumb 2.21914 -56.5979
lclavicle 3.8763e-015 -4.37326e-015
lhumerus -13.1545 15.8287 83.6244
lradius 12.471
lwrist -6.57901
lhand -25.5447 -5.16905
lfingers 7.12502
lthumb 0.985439 24.8084
rfemur -22.2974 -3.55161 18.6775
rtibia 34.9489
rfoot -14.8916 -0.964066
rtoes 10.9117
lfemur -21.9574 8.66772 -18.8363
ltibia 31.8063
lfoot -11.8699 3.53819
ltoes 1.65311
280
root 0.498022 17.3433 -3.04267 3.91269 0.496702 -0.678903
lowerback 3.46536 -0.431544 -0.970042
upperback 4.31146 -0.618266 1.6044
thorax 2.51727 -0.363216 2.20084
lowerneck -12.6466 0.0727191 -1.8438
upperneck 32.0466 0.387211 0.62358
head 12.7469 0.0287919 0.618341
rclavicle -7.15625e-015 -2.38542e-015
rhumerus -12.3027 -17.5098 -83.7899
rradius 24.0711
rwrist 33.1516
rhand -24.1513 -26.6092
rfingers 7.12502
rthumb 2.33127 -56.5762
lclavicle -7.15625e-015 -2.38542e-015
lhumerus -13.1398 15.4058 83.7542
lradius 12.5562
lwrist -6.81093
lhand -25.8509 -5.42304
lfingers 7.12502
lthumb 0.689713 24.5556
rfemur -22.3139 -3.46396 18.6967
rtibia 34.8535
rfoot -14.8577 -1.03317
rtoes 10.8023
lfemur -22.0001 8.62973 -18.8277
ltibia 31.7585
lfoot -11.8117 3.57764
ltoes 1.84486
281
root 0.504782 17.3454 -3.03216 4.00307 0.464784 -0.724589
lowerback 3.51238 -0.425792 -0.911278
upperback 4.36143 -0.610996 1.64898
thorax 2.54222 -0.359258 2.21399
lowerneck -12.7161 0.0705452 -1.80439
upperneck 32.0444 0.396738 0.556202
head 12.7611 0.029027 0.587074
rclavicle 5.76476e-015 -1.94809e-014
rhumerus -12.1559 -18.3264 -83.5534
rradius 23.577
rwrist 33.9732
rhand -24.0227 -26.5981
rfingers 7.12502
rthumb 2.45548 -56.5637
lclavicle 5.76476e-015 -1.94809e-014
lhumerus -13.1265 15.0137 83.8902
lradius 12.6479
lwrist -7.00003
lhand -26.1894 -5.69852
lfingers 7.12502
lthumb 0.362808 24.2809
rfemur -22.3353 -3.38156 18.7236
rtibia 34.7719
rfoot -14.8358 -1.0937
rtoes 10.6772
lfemur -22.0469 8.57731 -18.8081
ltibia 31.7339
lfoot -11.7817 3.65111
ltoes 1.97836
282
root 0.511694 17.3471 -3.02081 4.09485 0.421743 -0.765983
lowerback 3.54534 -0.413136 -0.85632
upperback 4.40623 -0.594407 1.68664
thorax 2.56923 -0.35059 2.22194
lowerneck -12.777 0.064009 -1.7737
upperneck 32.0542 0.393628 0.514699
head 12.7785 0.0259128 0.565513
rclavicle 5.26779e-015 -1.31198e-014
rhumerus -12.0305 -19.2367 -83.3132
rradius 23.0607
rwrist 34.8639
rhand -23.8875 -26.5881
rfingers 7.12502
rthumb 2.58602 -56.5522
lclavicle 5.26779e-015 -1.31198e-014
lhumerus -13.1235 14.6453 84.0311
lradius 12.753
lwrist -7.13734
lhand -26.524 -5.93203
lfingers 7.12502
lthumb 0.039602 24.0477
rfemur -22.3659 -3.30106 18.7452
rtibia 34.7076
rfoot -14.8254 -1.14072
rtoes 10.5668
lfemur -22.0949 8.51793 -18.7908
ltibia 31.7242
lfoot -11.7704 3.75372
ltoes 2.0564
283
root 0.518659 17.3486 -3.00859 4.18905 0.367077 -0.790613
lowerback 3.56456 -0.393603 -0.817772
upperback 4.44359 -0.568655 1.71308
thorax 2.5959 -0.337551 2.22733
lowerneck -12.8265 0.0520193 -1.75231
upperneck 32.0749 0.37586 0.500646
head 12.7981 0.0187163 0.554053
rclavicle 6.95746e-016 -1.43125e-014
rhumerus -11.9342 -20.2444 -83.0691
rradius 22.5283
rwrist 35.8204
rhand -23.7554 -26.5759
rfingers 7.12502
rthumb 2.71356 -56.5384
lclavicle 6.95746e-016 -1.43125e-014
lhumerus -13.139 14.2916 84.1742
lradius 12.8757
lwrist -7.20633
lhand -26.8182 -6.06642
lfingers 7.12502
lthumb -0.244528 23.9132
rfemur -22.4075 -3.22436 18.7479
rtibia 34.6625
rfoot -14.8284 -1.16972
rtoes 10.504
lfemur -22.1409 8.4581 -18.7902
ltibia 31.7199
lfoot -11.7713 3.87498
ltoes 2.11072
284
root 0.525627 17.35 -2.99553 4.2862 0.29956 -0.793008
lowerback 3.57141 -0.367939 -0.802203
upperback 4.47193 -0.534806 1.72712
thorax 2.61989 -0.320829 2.23269
lowerneck -12.8605 0.0324824 -1.74769
upperneck 32.1027 0.340274 0.520097
head 12.8174 0.00596302 0.555852
rclavicle 2.5842e-015 -2.38542e-015
rhumerus -11.8819 -21.3104 -82.8215
rradius 22.0057
rwrist 36.7973
rhand -23.6236 -26.5756
rfingers 7.12502
rthumb 2.84092 -56.5365
lclavicle 2.5842e-015 -2.38542e-015
lhumerus -13.1845 13.9289 84.3185
lradius 13.0254
lwrist -7.18309
lhand -27.0829 -6.1656
lfingers 7.12502
lthumb -0.500193 23.8136
rfemur -22.4607 -3.1533 18.7262
rtibia 34.6355
rfoot -14.8433 -1.1797
rtoes 10.4765
lfemur -22.1823 8.40622 -18.8138
ltibia 31.713
lfoot -11.7788 4.00564
ltoes 2.13582
285
root 0.53247 17.3516 -2.98169 4.3832 0.218169 -0.77688
lowerback 3.56872 -0.336811 -0.807752
upperback 4.49367 -0.493778 1.73094
thorax 2.64218 -0.300903 2.23924
lowerneck -12.8835 0.00792448 -1.74393
upperneck 32.1338 0.293924 0.549876
head 12.8359 -0.0103004 0.560205
rclavicle -1.88845e-015 5.96354e-015
rhumerus -11.872 -22.4283 -82.5702
rradius 21.4986
rwrist 37.7868
rhand -23.4951 -26.5725
rfingers 7.12502
rthumb 2.96501 -56.5316
lclavicle -1.88845e-015 5.96354e-015
lhumerus -13.2614 13.5273 84.4689
lradius 13.2052
lwrist -7.02303
lhand -27.3142 -6.23183
lfingers 7.12502
lthumb -0.723548 23.7467
rfemur -22.52 -3.08448 18.6845
rtibia 34.6212
rfoot -14.8649 -1.17472
rtoes 10.4668
lfemur -22.2148 8.3714 -18.858
ltibia 31.698
lfoot -11.7863 4.13839
ltoes 2.13008
